<svg width="81" height="80" viewBox="0 0 81 80" fill="none" xmlns="http://www.w3.org/2000/svg">
<g id="SVG">
<path id="Vector" d="M65.1782 64.7333C60.2851 69.6325 54.0488 72.9703 47.2582 74.3243C40.4677 75.6783 33.4282 74.9877 27.0302 72.34C20.6323 69.6922 15.1634 65.2062 11.3157 59.4495C7.46788 53.6928 5.41406 46.9242 5.41406 40C5.41406 33.0758 7.46788 26.3072 11.3157 20.5505C15.1634 14.7939 20.6323 10.3079 27.0302 7.66007C33.4282 5.01228 40.4677 4.32171 47.2582 5.67572C54.0488 7.02973 60.2851 10.3675 65.1782 15.2667" stroke="#FF0000" stroke-width="6.36667" stroke-miterlimit="10"/>
<path id="Vector_2" d="M46.7755 27.2666H43.6089C40.0926 27.2666 37.2422 30.1171 37.2422 33.6333C37.2422 37.1495 40.0926 39.9999 43.6089 39.9999H46.7755C50.2917 39.9999 53.1422 37.1495 53.1422 33.6333C53.1422 30.1171 50.2917 27.2666 46.7755 27.2666Z" stroke="#FF0000" stroke-width="6.36667" stroke-miterlimit="10"/>
<path id="Vector_3" d="M46.7755 40H43.6089C40.0926 40 37.2422 42.8505 37.2422 46.3667C37.2422 49.8829 40.0926 52.7333 43.6089 52.7333H46.7755C50.2917 52.7333 53.1422 49.8829 53.1422 46.3667C53.1422 42.8505 50.2917 40 46.7755 40Z" stroke="#FF0000" stroke-width="6.36667" stroke-miterlimit="10"/>
<path id="Vector_4" d="M24.5117 24.0996V52.7329" stroke="#FF0000" stroke-width="6.36667" stroke-miterlimit="10"/>
<path id="Vector_5" d="M18.1445 52.7334H30.8779" stroke="#FF0000" stroke-width="6.36667" stroke-miterlimit="10"/>
<path id="Vector_6" d="M18.1445 30.4668H27.6779" stroke="#FF0000" stroke-width="6.36667" stroke-miterlimit="10"/>
<path id="Vector_7" d="M59.5117 40H78.6117" stroke="#FF0000" stroke-width="6.36667" stroke-miterlimit="10"/>
<path id="Vector_8" d="M69.043 30.4668V49.5335" stroke="#FF0000" stroke-width="6.36667" stroke-miterlimit="10"/>
</g>
</svg>
